<svg width="300" height="300" viewBox="0 0 300 300" fill="none" xmlns="http://www.w3.org/2000/svg">
<rect width="300" height="300" rx="10" fill="#292929"/>
<path fill-rule="evenodd" clip-rule="evenodd" d="M141 111.465H111V141.465H141V111.465ZM105 105.465V147.465H147V105.465H105Z" fill="#F0F0F0"/>
<path fill-rule="evenodd" clip-rule="evenodd" d="M141 159.465H111V189.465H141V159.465ZM105 153.465V195.465H147V153.465H105Z" fill="#F0F0F0"/>
<path fill-rule="evenodd" clip-rule="evenodd" d="M189 111.465H159V141.465H189V111.465ZM153 105.465V147.465H195V105.465H153Z" fill="#F0F0F0"/>
<path fill-rule="evenodd" clip-rule="evenodd" d="M189 159.465H159V189.465H189V159.465ZM153 153.465V195.465H195V153.465H153Z" fill="#F0F0F0"/>
<path d="M97.4344 275.898H89.1844L87.0724 281.31H85.5104L92.3304 264.106H94.2664L101.108 281.31H99.5464L97.4344 275.898ZM96.9284 274.622L93.2984 265.36L89.6904 274.622H96.9284ZM106.858 280.078V281.31H105.934C105.01 281.31 104.35 281.105 103.954 280.694C103.588 280.328 103.404 279.638 103.404 278.626V263.27H104.79V278.56C104.79 279.147 104.856 279.528 104.988 279.704C105.164 279.954 105.494 280.078 105.978 280.078H106.858ZM112.553 280.078V281.31H111.629C110.705 281.31 110.045 281.105 109.649 280.694C109.282 280.328 109.099 279.638 109.099 278.626V263.27H110.485V278.56C110.485 279.147 110.551 279.528 110.683 279.704C110.859 279.954 111.189 280.078 111.673 280.078H112.553ZM129.783 264.678L129.409 266.02C128.309 265.375 127.194 265.052 126.065 265.052C124.98 265.052 124.107 265.368 123.447 265.998C122.772 266.629 122.435 267.421 122.435 268.374C122.435 269.342 122.816 270.105 123.579 270.662C124.048 271 124.914 271.388 126.175 271.828C127.994 272.474 129.211 273.148 129.827 273.852C130.502 274.63 130.839 275.605 130.839 276.778C130.839 278.245 130.318 279.418 129.277 280.298C128.177 281.208 126.74 281.662 124.965 281.662C123.308 281.662 121.775 281.244 120.367 280.408L120.829 279.11C122.178 279.946 123.542 280.364 124.921 280.364C126.226 280.364 127.304 280.056 128.155 279.44C128.991 278.824 129.409 277.952 129.409 276.822C129.409 275.884 129.101 275.106 128.485 274.49C128.192 274.168 127.774 273.889 127.231 273.654C126.967 273.537 126.439 273.339 125.647 273.06C124.18 272.547 123.161 272.07 122.589 271.63C121.533 270.809 121.005 269.738 121.005 268.418C121.005 267.098 121.46 265.998 122.369 265.118C123.322 264.209 124.562 263.754 126.087 263.754C127.348 263.754 128.58 264.062 129.783 264.678ZM139.15 268.11C141.013 268.11 142.538 268.77 143.726 270.09C144.856 271.337 145.42 272.936 145.42 274.886C145.42 276.837 144.856 278.436 143.726 279.682C142.538 281.002 141.02 281.662 139.172 281.662C137.295 281.662 135.762 281.002 134.574 279.682C133.445 278.436 132.88 276.808 132.88 274.798C132.88 273.478 133.174 272.283 133.76 271.212C134.318 270.2 135.11 269.416 136.136 268.858C137.046 268.36 138.05 268.11 139.15 268.11ZM139.15 269.342C137.566 269.342 136.305 269.944 135.366 271.146C134.618 272.1 134.244 273.368 134.244 274.952C134.244 276.58 134.684 277.886 135.564 278.868C136.503 279.91 137.698 280.43 139.15 280.43C140.734 280.43 141.996 279.829 142.934 278.626C143.682 277.673 144.056 276.426 144.056 274.886C144.056 273.214 143.616 271.887 142.736 270.904C141.798 269.863 140.602 269.342 139.15 269.342ZM149.872 268.462H152.336V269.694H149.872V281.31H148.508V269.694H146.748V268.462H148.508V266.68C148.508 265.903 148.567 265.338 148.684 264.986C149.08 263.842 150.026 263.27 151.522 263.27C151.757 263.27 152.021 263.3 152.314 263.358L152.16 264.546C151.867 264.517 151.676 264.502 151.588 264.502C150.87 264.502 150.378 264.708 150.114 265.118C149.953 265.397 149.872 265.925 149.872 266.702V268.462ZM154.889 268.462V264.788H156.253V268.462H160.345V269.694H156.253V277.834C156.253 278.788 156.363 279.418 156.583 279.726C156.905 280.196 157.558 280.43 158.541 280.43C159.054 280.43 159.575 280.401 160.103 280.342V281.552C159.501 281.626 158.951 281.662 158.453 281.662C157.206 281.662 156.319 281.42 155.791 280.936C155.351 280.54 155.072 279.968 154.955 279.22C154.911 278.912 154.889 278.436 154.889 277.79V269.694H153.217V268.462H154.889ZM171.504 268.462L174.848 279.836L178.566 268.462H179.974L175.706 281.31H174.034L170.536 269.43L167.06 281.31H165.388L161.098 268.462H162.506L166.224 279.836L169.568 268.462H171.504ZM190.134 279.088C188.946 280.804 187.333 281.662 185.294 281.662C184.135 281.662 183.189 281.354 182.456 280.738C181.649 280.034 181.246 279.096 181.246 277.922C181.246 276.793 181.635 275.862 182.412 275.128C183.028 274.556 183.908 274.16 185.052 273.94C185.492 273.852 186.306 273.728 187.494 273.566C188.579 273.42 189.254 273.273 189.518 273.126C189.914 272.906 190.112 272.496 190.112 271.894C190.112 270.97 189.665 270.281 188.77 269.826C188.125 269.504 187.347 269.342 186.438 269.342C185.103 269.342 183.827 269.716 182.61 270.464L182.478 269.122C183.666 268.448 184.979 268.11 186.416 268.11C187.648 268.11 188.719 268.367 189.628 268.88C190.625 269.423 191.219 270.259 191.41 271.388C191.469 271.784 191.498 272.29 191.498 272.906V279C191.498 279.866 191.652 280.636 191.96 281.31H190.53C190.325 280.856 190.193 280.115 190.134 279.088ZM190.134 277.13V274.072C189.87 274.248 189.591 274.373 189.298 274.446C188.961 274.534 188.257 274.652 187.186 274.798C185.499 275.018 184.407 275.268 183.908 275.546C183.043 276.03 182.61 276.808 182.61 277.878C182.61 278.7 182.874 279.338 183.402 279.792C183.871 280.218 184.539 280.43 185.404 280.43C186.739 280.43 187.905 279.932 188.902 278.934C189.401 278.436 189.811 277.834 190.134 277.13ZM196.226 281.31H194.862V268.462H196.226V270.332C197.136 268.851 198.448 268.11 200.164 268.11C200.252 268.11 200.362 268.11 200.494 268.11V269.364C200.348 269.35 200.223 269.342 200.12 269.342C199.211 269.342 198.426 269.599 197.766 270.112C196.974 270.714 196.49 271.542 196.314 272.598C196.256 272.95 196.226 273.456 196.226 274.116V281.31ZM212.749 280.914C211.561 281.413 210.27 281.662 208.877 281.662C206.985 281.662 205.496 281.149 204.411 280.122C203.091 278.876 202.431 277.152 202.431 274.952C202.431 273.104 202.915 271.528 203.883 270.222C204.939 268.814 206.376 268.11 208.195 268.11C209.603 268.11 210.798 268.55 211.781 269.43C213.13 270.633 213.812 272.598 213.827 275.326H203.773C203.846 276.822 204.213 277.974 204.873 278.78C205.797 279.88 207.154 280.43 208.943 280.43C210.248 280.43 211.517 280.122 212.749 279.506V280.914ZM203.795 274.116H212.441C212.353 273.119 212.111 272.246 211.715 271.498C210.952 270.061 209.779 269.342 208.195 269.342C206.42 269.342 205.13 270.2 204.323 271.916C204.03 272.562 203.854 273.295 203.795 274.116Z" fill="white"/>
</svg>
