<svg width="61" height="92" viewBox="0 0 61 92" fill="none" xmlns="http://www.w3.org/2000/svg">
<g clip-path="url(#clip0_328_313)">
<path d="M60.673 0.689697H0.254974V91.3177H60.673V0.689697Z" fill="white"/>
<path d="M59.796 1.66174V90.3447H1.13298V1.66174H59.796Z" fill="#1A1818"/>
<path d="M56.421 4.81372H4.08498V19.5197H56.421V4.81372Z" fill="white"/>
<path d="M56.427 22.7267H4.06097V76.7887H56.427V22.7267Z" fill="white"/>
<path d="M4.07097 87.1498V79.9718H14.584V81.6518H8.29397V82.6778H13.617V84.3518H8.29497V85.4758H14.829V87.1498H4.07097Z" fill="white"/>
<path d="M23.762 82.0627C23.7101 81.9363 23.6267 81.8253 23.5198 81.7402C23.4128 81.6551 23.2858 81.5988 23.151 81.5767C22.7952 81.4806 22.4274 81.4362 22.059 81.4448C21.13 81.4448 20.715 81.5958 20.715 81.8638C20.715 82.9248 28.129 82.2637 28.129 84.8707C28.129 86.5317 25.635 87.3447 22.095 87.3447C18.695 87.3447 16.474 86.2378 16.384 84.9448H20.43C20.4959 85.0861 20.5933 85.2105 20.7146 85.3086C20.8359 85.4067 20.9779 85.4758 21.13 85.5107C21.5178 85.6346 21.9229 85.6957 22.33 85.6918C23.385 85.6918 24.088 85.5047 24.088 85.1647C24.088 84.0767 16.669 84.8227 16.669 82.0867C16.669 80.5627 19.033 79.7968 22.258 79.7968C25.834 79.7968 27.466 80.8118 27.774 82.0668L23.762 82.0627Z" fill="white"/>
<path d="M34.452 83.0857H36.113C37.421 83.0857 38.123 82.8957 38.123 82.4007C38.123 81.9057 37.407 81.6517 36.423 81.6517H34.452V83.0857ZM34.452 84.6497V87.1497H30.229V79.9717H36.317C40.607 79.9717 42.025 80.6277 42.025 82.0227C42.025 82.8527 41.366 83.5417 39.86 83.7837C41.22 84.0567 42.045 84.2267 42.045 85.6747C42.045 86.6077 41.99 86.9327 42.491 86.9327V87.1507H38.208C38.0424 86.7537 37.9706 86.324 37.998 85.8947C37.998 84.9527 37.71 84.6497 35.742 84.6497H34.452Z" fill="white"/>
<path d="M48.843 81.6517V82.8517H50.603C51.445 82.8517 52.055 82.6358 52.055 82.2248C52.055 81.6628 51.222 81.6508 50.335 81.6508L48.843 81.6517ZM48.843 84.1517V85.4748H50.685C51.732 85.4748 52.518 85.3528 52.518 84.8168C52.518 84.1898 51.536 84.1517 50.186 84.1517H48.843ZM44.621 87.1517V79.9738H50.782C53.682 79.9738 55.993 80.3638 55.993 81.7838C55.993 82.5238 55.13 83.0628 54.309 83.3428C55.704 83.5428 56.453 84.2168 56.453 84.9868C56.453 86.5868 54.253 87.1517 50.902 87.1517H44.621Z" fill="white"/>
<path d="M7.97498 35.2227L39.666 25.7548L42.844 35.7927L26.968 40.5308L28.268 44.6387L42.936 40.2607L46.106 50.3038L31.444 54.6727L32.813 58.9987L49.208 54.0988L52.387 64.1328L20.18 73.7537L7.97498 35.2227Z" fill="#1A1818"/>
<path d="M5.53798 16.3307V8.00171H10.031V9.28375H7.26098V11.3358H9.81398V12.6198H7.26098V15.0507H10.12V16.3327L5.53798 16.3307Z" fill="#1A1818"/>
<path d="M10.576 8.00171H12.369L13.642 14.0577H13.666L15.102 8.00171H16.802L14.623 16.3307H12.607L10.576 8.00171Z" fill="#1A1818"/>
<path d="M17.579 16.3307V8.00171H22.07V9.28375H19.299V11.3358H21.854V12.6198H19.299V15.0507H22.16V16.3327L17.579 16.3307Z" fill="#1A1818"/>
<path d="M24.965 16.3308H23.246V8.00172H26.423C26.6839 7.98856 26.9446 8.03119 27.1877 8.12672C27.4308 8.22225 27.6508 8.3685 27.833 8.55574C28.2078 9.01126 28.3932 9.59334 28.351 10.1817C28.3655 10.6554 28.2455 11.1235 28.005 11.5318C27.8703 11.7259 27.695 11.8885 27.4913 12.0081C27.2875 12.1278 27.0601 12.2017 26.825 12.2247V12.2457L27.212 12.3157C27.3895 12.3505 27.5579 12.4213 27.707 12.5238C27.8853 12.6472 28.0319 12.8109 28.135 13.0017C28.2708 13.2754 28.3339 13.5795 28.318 13.8847C28.318 14.0127 28.318 14.1988 28.324 14.4378C28.33 14.6768 28.336 14.9207 28.351 15.1757C28.366 15.4307 28.389 15.6627 28.415 15.8757C28.4281 16.0299 28.4618 16.1815 28.515 16.3267H26.825C26.7093 16.0758 26.6487 15.803 26.647 15.5267C26.647 15.2507 26.647 14.9767 26.647 14.7077C26.647 14.4627 26.647 14.2278 26.641 14.0078C26.6418 13.8081 26.6031 13.6103 26.527 13.4257C26.4521 13.2565 26.3244 13.1162 26.163 13.0258C25.9305 12.9127 25.6731 12.8607 25.415 12.8748H24.969L24.965 16.3308ZM24.965 11.6007H25.729C25.8785 11.6057 26.0259 11.5653 26.152 11.4848C26.2651 11.4106 26.3582 11.3096 26.423 11.1907C26.4945 11.067 26.5435 10.9315 26.568 10.7907C26.5929 10.6534 26.6056 10.5143 26.606 10.3748C26.6359 10.073 26.5528 9.77087 26.373 9.52675C26.2889 9.44275 26.1882 9.37734 26.0772 9.33479C25.9663 9.29224 25.8476 9.27349 25.729 9.27974H24.965V11.6007Z" fill="#1A1818"/>
<path d="M30.963 13.4457L28.807 8.00171H30.692L31.924 11.5197L33.235 8.00171H34.989L32.689 13.4457V16.3307H30.963V13.4457Z" fill="#1A1818"/>
<path d="M38.545 16.4727C37.9742 16.5052 37.4056 16.3792 36.902 16.1087C36.5276 15.8802 36.2323 15.5424 36.056 15.1407C35.8767 14.7023 35.7752 14.236 35.756 13.7628C35.726 13.2478 35.709 12.7168 35.709 12.1718C35.709 11.6268 35.726 11.0827 35.756 10.5717C35.7745 10.1009 35.8761 9.63716 36.056 9.20172C36.2324 8.80117 36.5277 8.46461 36.902 8.23773C37.4159 7.99701 37.9765 7.87219 38.544 7.87219C39.1115 7.87219 39.6721 7.99701 40.186 8.23773C40.5607 8.46376 40.856 8.8006 41.031 9.20172C41.2115 9.63723 41.3151 10.1008 41.337 10.5717C41.367 11.0877 41.383 11.6208 41.383 12.1718C41.383 12.7228 41.368 13.2478 41.337 13.7628C41.3144 14.2362 41.2109 14.7022 41.031 15.1407C40.8561 15.543 40.5609 15.8811 40.186 16.1087C39.6831 16.3793 39.1151 16.5054 38.545 16.4727ZM38.545 15.2257C38.7539 15.2366 38.9599 15.1736 39.127 15.0477C39.2861 14.9 39.4005 14.7104 39.457 14.5007C39.5426 14.1901 39.5922 13.8707 39.605 13.5487C39.629 13.1587 39.642 12.7007 39.642 12.1707C39.642 11.6407 39.63 11.1797 39.605 10.7917C39.5923 10.4698 39.5427 10.1503 39.457 9.83972C39.4008 9.6299 39.2864 9.44027 39.127 9.29272C38.9553 9.17565 38.7523 9.11304 38.5445 9.11304C38.3367 9.11304 38.1337 9.17565 37.962 9.29272C37.7999 9.43786 37.6852 9.62848 37.633 9.83972C37.5454 10.1499 37.4953 10.4696 37.484 10.7917C37.4613 11.1797 37.4496 11.6394 37.449 12.1707C37.449 12.7007 37.461 13.1587 37.484 13.5487C37.4955 13.8709 37.5455 14.1905 37.633 14.5007C37.6855 14.7119 37.8001 14.9024 37.962 15.0477C38.1299 15.1723 38.3363 15.2339 38.545 15.2217V15.2257Z" fill="#1A1818"/>
<path d="M42.761 16.3307V8.00171H45.09L47.275 13.7677H47.299V8.00171H48.91V16.3307H46.639L44.393 10.2397H44.369V16.3307H42.761Z" fill="#1A1818"/>
<path d="M50.353 16.3307V8.00171H54.853V9.28375H52.078V11.3358H54.628V12.6198H52.078V15.0507H54.936V16.3327L50.353 16.3307Z" fill="#1A1818"/>
</g>
<defs>
<clipPath id="clip0_328_313">
<rect width="60.418" height="90.628" fill="white" transform="translate(0.255981 0.689697)"/>
</clipPath>
</defs>
</svg>
