<svg width="61" height="92" viewBox="0 0 61 92" fill="none" xmlns="http://www.w3.org/2000/svg">
<g clip-path="url(#clip0_328_314)">
<path d="M60.8399 0.689697H0.421936V91.3177H60.8389V0.689697H60.8399Z" fill="white"/>
<path d="M59.9619 1.66174V90.3457H1.29993V1.66174H59.9619Z" fill="#1A1818"/>
<path d="M56.5879 4.81372H4.25192V19.5207H56.5879V4.81372Z" fill="white"/>
<path d="M56.5939 22.7267H4.22794V76.7887H56.5939V22.7267Z" fill="white"/>
<path d="M4.23792 87.1517V79.9738H14.7509V81.6537H8.46092V82.6797H13.7839V84.3538H8.46092V85.4777H14.9949V87.1517H4.23792Z" fill="white"/>
<path d="M23.9279 82.0647C23.8766 81.9379 23.7933 81.8265 23.6863 81.7414C23.5792 81.6562 23.452 81.6002 23.3169 81.5787C22.9618 81.4826 22.5947 81.4382 22.2269 81.4467C21.2979 81.4467 20.8829 81.5977 20.8829 81.8657C20.8829 82.9267 28.2959 82.2657 28.2959 84.8727C28.2959 86.5337 25.8039 87.3467 22.2619 87.3467C18.8619 87.3467 16.6429 86.2397 16.5529 84.9467H20.5969C20.6633 85.0878 20.7608 85.2119 20.882 85.3099C21.0032 85.408 21.1451 85.4773 21.2969 85.5127C21.6847 85.6365 22.0898 85.6977 22.4969 85.6937C23.5539 85.6937 24.2549 85.5067 24.2549 85.1667C24.2549 84.0787 16.8349 84.8247 16.8349 82.0887C16.8349 80.5647 19.2009 79.7987 22.4239 79.7987C26.0019 79.7987 27.6319 80.8137 27.9409 82.0687L23.9279 82.0647Z" fill="white"/>
<path d="M34.6199 83.0876H36.2809C37.5869 83.0876 38.2889 82.8976 38.2889 82.4026C38.2889 81.9076 37.5749 81.6536 36.5889 81.6536H34.6199V83.0876ZM34.6199 84.6517V87.1517H30.3969V79.9736H36.4849C40.7749 79.9736 42.1929 80.6297 42.1929 82.0247C42.1929 82.8547 41.5319 83.5436 40.0279 83.7856C41.3859 84.0586 42.2109 84.2286 42.2109 85.6766C42.2109 86.6096 42.1559 86.9346 42.6569 86.9346V87.1526H38.3759C38.2094 86.7559 38.1369 86.3261 38.1639 85.8967C38.1639 84.9547 37.8779 84.6517 35.9089 84.6517H34.6199Z" fill="white"/>
<path d="M49.0089 81.6537V82.8537H50.7699C51.6099 82.8537 52.2219 82.6377 52.2219 82.2267C52.2219 81.6647 51.3889 81.6527 50.5019 81.6527L49.0089 81.6537ZM49.0089 84.1537V85.4767H50.8529C51.8999 85.4767 52.6839 85.3547 52.6839 84.8187C52.6839 84.1917 51.7039 84.1537 50.3529 84.1537H49.0089ZM44.7889 87.1537V79.9757H50.9499C53.8499 79.9757 56.1609 80.3657 56.1609 81.7857C56.1609 82.5257 55.2979 83.0647 54.4769 83.3447C55.8719 83.5447 56.6189 84.2187 56.6189 84.9887C56.6189 86.5887 54.4189 87.1537 51.0699 87.1537H44.7889Z" fill="white"/>
<path d="M6.12592 36.1137L22.1849 31.7867L31.3439 53.3537L31.4209 53.3267L28.6569 30.0527L44.7159 25.7307L54.7349 63.3927L44.9489 66.0157L37.7829 39.0927L37.7059 39.1227L40.7399 67.1458L30.1479 70.0057L18.8569 44.2057L18.7769 44.2267L25.9289 71.1497L16.1479 73.7787L6.12592 36.1137Z" fill="#1A1818"/>
<path d="M5.70392 16.3168V7.98877H8.06392L9.16393 13.6508H9.18393L10.3499 7.98877H12.6379V16.3168H11.2069V9.89178H11.1869L9.83493 16.3168H8.43492L7.14893 9.89178H7.13092V16.3168H5.70392Z" fill="#1A1818"/>
<path d="M13.3059 16.3168L15.2499 7.98877H17.1879L19.0939 16.3168H17.5469L17.1589 14.4698H15.1529L14.7529 16.3168H13.3059ZM16.1379 9.5918H16.1149L15.4449 13.1918H16.8449L16.1379 9.5918Z" fill="#1A1818"/>
<path d="M23.3839 7.98779V9.3728H21.7499V16.3168H20.2789V9.37378H18.6449V7.98877L23.3839 7.98779Z" fill="#1A1818"/>
<path d="M28.8159 7.98773V13.8878C28.8157 14.2024 28.7747 14.5157 28.6939 14.8198C28.6138 15.1154 28.4781 15.393 28.2939 15.6378C28.0977 15.8882 27.8461 16.0898 27.5589 16.2267C27.2037 16.3848 26.8175 16.4607 26.4289 16.4487C26.0963 16.4751 25.7621 16.4267 25.4506 16.3071C25.1392 16.1876 24.8584 15.9999 24.6289 15.7578C24.2124 15.2264 24.0031 14.5619 24.0399 13.8878V7.98773H25.5089V13.7777C25.4771 14.1611 25.5636 14.5451 25.7569 14.8777C25.8317 14.9818 25.9307 15.0661 26.0453 15.1234C26.16 15.1807 26.2868 15.2093 26.4149 15.2067C26.5554 15.2165 26.6958 15.1873 26.8207 15.1224C26.9456 15.0574 27.0502 14.9593 27.1229 14.8387C27.2934 14.5115 27.3719 14.1441 27.3499 13.7758V7.98572L28.8159 7.98773Z" fill="#1A1818"/>
<path d="M31.4519 16.3168H29.9809V7.98877H32.6949C32.9245 7.98094 33.1527 8.0272 33.3612 8.12378C33.5696 8.22035 33.7525 8.36458 33.8949 8.5448C34.2223 9.02002 34.3791 9.59205 34.3399 10.1678C34.3536 10.6357 34.2505 11.0997 34.0399 11.5178C33.9381 11.7027 33.7949 11.8615 33.6214 11.9817C33.4478 12.102 33.2488 12.1804 33.0399 12.2108V12.2348C33.1179 12.2488 33.2269 12.2728 33.3719 12.3018C33.5265 12.339 33.6707 12.4104 33.7939 12.5108C33.9507 12.6406 34.0752 12.8048 34.1579 12.9908C34.2764 13.2684 34.3301 13.5693 34.3149 13.8708C34.3149 14.0038 34.3149 14.1878 34.3209 14.4248C34.3269 14.6618 34.3319 14.9108 34.3449 15.1628C34.3579 15.4148 34.3739 15.6518 34.3979 15.8628C34.4075 16.0161 34.4347 16.1678 34.4789 16.3148H33.0399C32.9416 16.0594 32.8901 15.7884 32.8879 15.5148C32.8879 15.2378 32.8879 14.9638 32.8879 14.6968C32.8879 14.4498 32.8879 14.2138 32.8879 13.9968C32.8887 13.7975 32.8549 13.5995 32.7879 13.4118C32.7284 13.2491 32.6193 13.1091 32.4759 13.0118C32.2833 12.9003 32.0621 12.8478 31.8399 12.8608H31.4579L31.4519 16.3168ZM31.4519 11.5878H32.1049C32.2348 11.5921 32.3621 11.5519 32.4659 11.4738C32.5636 11.3918 32.6421 11.2894 32.6959 11.1738C32.7597 11.0483 32.8023 10.9132 32.8219 10.7738C32.843 10.6361 32.8541 10.4971 32.8549 10.3578C32.8819 10.0609 32.8117 9.76336 32.6549 9.50982C32.5887 9.42884 32.5045 9.36434 32.409 9.32147C32.3136 9.2786 32.2095 9.25854 32.1049 9.26281H31.4519V11.5878Z" fill="#1A1818"/>
<path d="M35.4219 16.3168V7.98877H39.2559V9.2688H36.8929V11.3238H39.0719V12.6028H36.8929V15.0338H39.3329V16.3168H35.4219Z" fill="#1A1818"/>
<path d="M42.3149 9.23877C42.5643 9.06649 42.8018 8.87773 43.0259 8.67377C43.2583 8.45823 43.4602 8.21196 43.6259 7.94177H44.9259V16.3148H43.4549V9.87274C43.2844 10.0548 43.1002 10.2236 42.9039 10.3777C42.7089 10.5267 42.5109 10.6717 42.3099 10.8087L42.3149 9.23877Z" fill="#1A1818"/>
<path d="M50.1079 9.53876L48.4519 16.3148H46.9249L48.7849 9.23877H46.4569V7.93872H50.1079V9.53876Z" fill="#1A1818"/>
<path d="M52.3739 9.60266H53.4559V11.8757H55.0989V13.1547H53.4559V15.4257H52.3739V13.1547H50.7189V11.8757H52.3739V9.60266Z" fill="#1A1818"/>
</g>
<defs>
<clipPath id="clip0_328_314">
<rect width="60.418" height="90.628" fill="white" transform="translate(0.419983 0.689697)"/>
</clipPath>
</defs>
</svg>
