<svg width="62" height="92" viewBox="0 0 62 92" fill="none" xmlns="http://www.w3.org/2000/svg">
<g clip-path="url(#clip0_328_315)">
<path d="M61.092 0.689697H0.672958V91.3177H61.092V0.689697Z" fill="white"/>
<path d="M60.215 1.66174V90.3447H1.55199V1.66174H60.215Z" fill="#1A1818"/>
<path d="M56.84 4.81372H4.50297V19.5197H56.84V4.81372Z" fill="white"/>
<path d="M56.847 22.7267H4.47997V76.7887H56.847V22.7267Z" fill="white"/>
<path d="M4.49098 87.1498V79.9718H15.003V81.6518H8.71397V82.6778H14.037V84.3518H8.71397V85.4758H15.248V87.1498H4.49098Z" fill="white"/>
<path d="M24.174 82.0627C24.1231 81.936 24.0403 81.8246 23.9336 81.7394C23.8268 81.6543 23.6998 81.5982 23.565 81.5767C23.2092 81.4806 22.8414 81.4362 22.473 81.4448C21.546 81.4448 21.129 81.5958 21.129 81.8638C21.129 82.9248 28.542 82.2637 28.542 84.8707C28.542 86.5317 26.051 87.3447 22.51 87.3447C19.11 87.3447 16.891 86.2378 16.801 84.9448H20.845C20.9111 85.086 21.0085 85.2103 21.1298 85.3083C21.2511 85.4064 21.393 85.4756 21.545 85.5107C21.9327 85.6348 22.3379 85.696 22.745 85.6918C23.8 85.6918 24.502 85.5047 24.502 85.1647C24.502 84.0767 17.083 84.8227 17.083 82.0867C17.083 80.5627 19.449 79.7968 22.674 79.7968C26.252 79.7968 27.881 80.8118 28.19 82.0668L24.174 82.0627Z" fill="white"/>
<path d="M34.872 83.0857H36.535C37.835 83.0857 38.542 82.8957 38.542 82.4007C38.542 81.9057 37.828 81.6517 36.842 81.6517H34.873L34.872 83.0857ZM34.872 84.6497V87.1497H30.649V79.9717H36.736C41.028 79.9717 42.445 80.6277 42.445 82.0227C42.445 82.8527 41.786 83.5417 40.28 83.7837C41.64 84.0567 42.463 84.2267 42.463 85.6747C42.463 86.6077 42.41 86.9327 42.909 86.9327V87.1507H38.625C38.4585 86.754 38.3859 86.3241 38.413 85.8947C38.413 84.9527 38.127 84.6497 36.158 84.6497H34.872Z" fill="white"/>
<path d="M49.264 81.6517V82.8517H51.024C51.866 82.8517 52.478 82.6358 52.478 82.2248C52.478 81.6628 51.645 81.6508 50.756 81.6508L49.264 81.6517ZM49.264 84.1517V85.4748H51.108C52.154 85.4748 52.94 85.3528 52.94 84.8168C52.94 84.1898 51.958 84.1517 50.609 84.1517H49.264ZM45.044 87.1517V79.9738H51.205C54.105 79.9738 56.415 80.3638 56.415 81.7838C56.415 82.5238 55.553 83.0628 54.733 83.3428C56.128 83.5428 56.875 84.2168 56.875 84.9868C56.875 86.5868 54.675 87.1517 51.324 87.1517H45.044Z" fill="white"/>
<path d="M22.347 55.5087L22.225 39.7987L30.78 53.4217L22.347 55.5087ZM42.431 49.5557C41.7623 49.8805 41.0619 50.1355 40.341 50.3167C34.955 51.6517 31.129 48.7237 29.647 43.5997C28.558 39.8387 29.21 36.5297 31.759 34.4937L25.553 25.7397L11.975 29.1087L9.23196 73.7087L22.313 70.4707L22.267 64.6887L35.567 61.3817L38.718 66.3997L52.018 63.0997L42.43 49.5557" fill="#1A1818"/>
<path d="M32.9119 42.8008C33.9329 46.3128 35.995 48.9718 39.682 48.0518C40.1421 47.9382 40.5865 47.7683 41.005 47.5458L33.3179 36.7028C32.1639 38.1968 32.2229 40.4367 32.9119 42.8027" fill="#1A1818"/>
<path d="M35.93 35.1177C39.63 34.1997 41.689 36.8567 42.703 40.3737C43.586 43.4067 43.438 46.2397 41.003 47.5477L42.425 49.5607C46.147 47.7217 47.239 43.9507 45.969 39.5607C44.482 34.4527 40.663 31.5207 35.269 32.8607C33.993 33.1517 32.794 33.7119 31.752 34.5037L33.312 36.7097C33.9699 35.8918 34.8938 35.3305 35.923 35.1237" fill="#1A1818"/>
<path d="M5.96597 16.3417L7.32697 8.00073H8.67697L10.005 16.3417H8.92596L8.65799 14.4917H7.25497L6.97797 16.3417H5.96597ZM7.94397 9.60675H7.92899L7.46298 13.2067H8.43997L7.94397 9.60675Z" fill="#1A1818"/>
<path d="M10.514 7.99977H12.225C12.5221 7.98685 12.8131 8.08647 13.04 8.27877C13.27 8.50002 13.4361 8.77911 13.521 9.08675C13.6505 9.5093 13.7297 9.94564 13.757 10.3867C13.7983 10.9001 13.819 11.4791 13.819 12.1237V12.8808C13.819 13.1698 13.807 13.4717 13.785 13.7877C13.7606 14.0995 13.7189 14.4097 13.66 14.7168C13.6041 14.9997 13.5113 15.274 13.384 15.5327C13.2701 15.7597 13.1072 15.9585 12.907 16.1148C12.6978 16.2707 12.4417 16.3507 12.181 16.3418H10.514V7.99977ZM11.54 15.0598H12.035C12.105 15.0613 12.1745 15.0481 12.2391 15.0211C12.3037 14.994 12.362 14.9537 12.41 14.9027C12.526 14.7574 12.6044 14.5856 12.638 14.4027C12.7 14.1084 12.7372 13.8093 12.749 13.5087C12.769 13.1417 12.781 12.6988 12.781 12.1748C12.781 11.7898 12.781 11.4227 12.769 11.0747C12.766 10.7673 12.7406 10.4605 12.693 10.1568C12.662 9.93296 12.5887 9.71712 12.477 9.52077C12.4369 9.44815 12.3777 9.3879 12.3057 9.34664C12.2338 9.30537 12.1519 9.28468 12.069 9.28676H11.541L11.54 15.0598Z" fill="#1A1818"/>
<path d="M17.945 7.99976V13.9147C17.9459 14.2264 17.9175 14.5374 17.86 14.8438C17.8112 15.1308 17.717 15.4083 17.581 15.6657C17.4594 15.899 17.2847 16.1004 17.071 16.2537C16.8388 16.4095 16.5634 16.4882 16.284 16.4787C16.0304 16.4917 15.7783 16.4338 15.5559 16.3113C15.3335 16.1889 15.1496 16.0069 15.025 15.7857C14.724 15.2097 14.5821 14.5639 14.614 13.9147V7.99976H15.64V13.7997C15.6161 14.1746 15.6748 14.5501 15.812 14.8997C15.8484 14.9994 15.9155 15.0848 16.0037 15.1438C16.0919 15.2028 16.1966 15.2321 16.3026 15.2277C16.4086 15.2232 16.5104 15.1852 16.5934 15.119C16.6763 15.0529 16.736 14.9621 16.764 14.8597C16.8853 14.5187 16.9389 14.1573 16.922 13.7957V7.99573L17.945 7.99976Z" fill="#1A1818"/>
<path d="M18.788 16.3417V7.99976H19.811V14.9557H21.346V16.3407L18.788 16.3417Z" fill="#1A1818"/>
<path d="M24.318 7.99976V9.38672H23.179V16.3417H22.156V9.38672H21.014V7.99976H24.318Z" fill="#1A1818"/>
<path d="M27.831 14.0647C27.8461 14.4988 27.7938 14.9326 27.676 15.3507C27.6026 15.6218 27.4655 15.8714 27.276 16.0787C27.1258 16.2372 26.9337 16.3495 26.722 16.4027C26.5278 16.4518 26.3283 16.477 26.128 16.4777C25.8542 16.4918 25.5834 16.4148 25.358 16.2587C25.1552 16.1064 24.9987 15.9008 24.906 15.6647C24.796 15.3868 24.7267 15.0945 24.7 14.7967C24.6673 14.4531 24.6586 14.1076 24.674 13.7627H25.699C25.699 13.9627 25.699 14.1507 25.711 14.3307C25.7175 14.4883 25.7416 14.6446 25.783 14.7967C25.8096 14.9167 25.8692 15.0268 25.955 15.1147C25.9989 15.1551 26.0505 15.1861 26.1066 15.206C26.1628 15.226 26.2225 15.2344 26.282 15.2307C26.3653 15.2321 26.4471 15.2079 26.5163 15.1614C26.5855 15.1149 26.6387 15.0484 26.669 14.9707C26.7636 14.7545 26.8074 14.5195 26.797 14.2837C26.804 14.0585 26.7515 13.8353 26.645 13.6367C26.5399 13.4466 26.4116 13.2702 26.263 13.1117C26.108 12.9457 25.945 12.7817 25.768 12.6117C25.5819 12.4375 25.4143 12.2444 25.268 12.0357C25.1066 11.7974 24.9775 11.5389 24.884 11.2667C24.776 10.923 24.725 10.5639 24.733 10.2037C24.7316 9.89809 24.7571 9.59293 24.809 9.29174C24.8525 9.03041 24.9411 8.77864 25.071 8.54772C25.1909 8.34005 25.3633 8.16761 25.571 8.04772C25.8094 7.91646 26.0789 7.85221 26.351 7.86174C26.5733 7.84974 26.7946 7.89942 26.9905 8.0053C27.1864 8.11118 27.3492 8.26912 27.461 8.46172C27.739 9.05608 27.848 9.71552 27.776 10.3677H26.776C26.776 10.2127 26.77 10.0617 26.759 9.90972C26.7492 9.77444 26.7261 9.64043 26.69 9.50969C26.6624 9.40465 26.6138 9.30632 26.547 9.22069C26.5169 9.18472 26.479 9.15614 26.4362 9.13707C26.3934 9.11801 26.3468 9.10897 26.3 9.11071C26.2207 9.10928 26.1425 9.12948 26.0738 9.16912C26.0051 9.20875 25.9485 9.26638 25.91 9.33574C25.8029 9.53991 25.7545 9.76973 25.77 9.99974C25.763 10.2327 25.8153 10.4635 25.922 10.6707C26.0251 10.8572 26.1545 11.0279 26.306 11.1777C26.46 11.3317 26.6243 11.488 26.799 11.6467C26.9864 11.8112 27.1542 11.9967 27.299 12.1997C27.465 12.4334 27.5945 12.6911 27.683 12.9637C27.7929 13.32 27.8429 13.6921 27.831 14.0647Z" fill="#1A1818"/>
<path d="M31.711 16.4788C31.5321 16.4904 31.3528 16.464 31.185 16.4012C31.0171 16.3385 30.8644 16.2409 30.737 16.1148C30.489 15.8404 30.3152 15.5072 30.232 15.1468C30.1226 14.6935 30.0619 14.2299 30.051 13.7638C30.03 13.2498 30.024 12.7178 30.024 12.1718C30.024 11.6258 30.03 11.0818 30.051 10.5718C30.0614 10.1082 30.1221 9.64721 30.232 9.19678C30.3162 8.83767 30.49 8.50574 30.737 8.23181C31.0083 7.99726 31.3549 7.86816 31.7135 7.86816C32.0721 7.86816 32.4187 7.99726 32.69 8.23181C32.9364 8.5054 33.1086 8.83763 33.19 9.19678C33.301 9.64708 33.3627 10.1081 33.374 10.5718C33.392 11.0864 33.401 11.6198 33.401 12.1718C33.401 12.7238 33.392 13.2545 33.374 13.7638C33.3622 14.23 33.3005 14.6937 33.19 15.1468C33.1096 15.5072 32.9373 15.8407 32.69 16.1148C32.5617 16.2411 32.4082 16.3388 32.2394 16.4016C32.0707 16.4643 31.8906 16.4906 31.711 16.4788ZM31.711 15.2318C31.7792 15.2338 31.8468 15.2183 31.9074 15.1868C31.968 15.1553 32.0194 15.1089 32.057 15.0518C32.1652 14.8871 32.2337 14.6995 32.257 14.5038C32.3112 14.1895 32.3413 13.8716 32.347 13.5528C32.358 13.1628 32.367 12.7018 32.367 12.1718C32.367 11.6418 32.358 11.1788 32.347 10.7908C32.3413 10.4713 32.3112 10.1527 32.257 9.83777C32.2339 9.64201 32.1654 9.45437 32.057 9.28979C32.0181 9.2343 31.9665 9.189 31.9065 9.15771C31.8464 9.12643 31.7797 9.11005 31.712 9.11005C31.6442 9.11005 31.5775 9.12643 31.5175 9.15771C31.4574 9.189 31.4058 9.2343 31.367 9.28979C31.261 9.45563 31.1928 9.64267 31.167 9.83777C31.117 10.1532 31.088 10.4715 31.08 10.7908C31.066 11.1788 31.06 11.6408 31.06 12.1718C31.06 12.7028 31.066 13.1628 31.08 13.5528C31.088 13.8714 31.117 14.189 31.167 14.5038C31.193 14.6988 31.2613 14.8859 31.367 15.0518C31.4043 15.1086 31.4555 15.1548 31.5157 15.1863C31.5759 15.2178 31.6431 15.2335 31.711 15.2318Z" fill="#1A1818"/>
<path d="M34.224 16.3417V7.99976H35.609L36.909 13.7758H36.923V7.99976H37.878V16.3407H36.532L35.194 10.2407H35.182V16.3407L34.224 16.3417Z" fill="#1A1818"/>
<path d="M38.754 16.3417V7.99976H39.776V14.9557H41.307V16.3407L38.754 16.3417Z" fill="#1A1818"/>
<path d="M42.161 13.4527L40.876 7.99976H41.993L42.728 11.5237L43.511 7.99976H44.557L43.184 13.4527V16.3407H42.161V13.4527Z" fill="#1A1818"/>
<path d="M46.445 9.25476C46.6226 9.07749 46.788 8.88841 46.94 8.68878C47.1084 8.46184 47.25 8.21622 47.362 7.95679H48.269V16.3428H47.245V9.89178C47.1266 10.0664 46.9974 10.2334 46.858 10.3918C46.721 10.5438 46.581 10.6917 46.444 10.8257L46.445 9.25476Z" fill="#1A1818"/>
<path d="M50.626 16.4478C50.4234 16.458 50.2217 16.4138 50.0418 16.3199C49.862 16.2261 49.7105 16.0858 49.603 15.9138C49.3334 15.3815 49.2145 14.7857 49.259 14.1908C49.259 13.9348 49.265 13.6908 49.283 13.4588C49.2952 13.2418 49.3267 13.0262 49.377 12.8148C49.4228 12.632 49.4942 12.4566 49.589 12.2938C49.6792 12.1416 49.8043 12.0131 49.954 11.9188V11.8958C49.8225 11.8424 49.7091 11.7525 49.627 11.6368C49.5385 11.5126 49.471 11.3747 49.427 11.2288C49.3732 11.0572 49.3397 10.8801 49.327 10.7008C49.309 10.5048 49.3 10.2948 49.3 10.0708C49.2593 9.48888 49.3742 8.90661 49.633 8.38379C49.7417 8.21938 49.8895 8.08448 50.0632 7.99115C50.2368 7.89782 50.4308 7.849 50.628 7.849C50.8251 7.849 51.0192 7.89782 51.1928 7.99115C51.3664 8.08448 51.5142 8.21938 51.623 8.38379C51.8825 8.90639 51.9981 9.4887 51.958 10.0708C51.958 10.2948 51.947 10.5048 51.932 10.7008C51.917 10.8802 51.8818 11.0573 51.827 11.2288C51.7831 11.3748 51.7155 11.5126 51.627 11.6368C51.5449 11.7525 51.4314 11.8424 51.3 11.8958V11.9188C51.4489 12.014 51.5738 12.1423 51.665 12.2938C51.7591 12.457 51.8304 12.6322 51.877 12.8148C51.928 13.0261 51.9595 13.2417 51.971 13.4588C51.989 13.6898 51.995 13.9348 51.995 14.1908C52.0398 14.786 51.9201 15.382 51.649 15.9138C51.5412 16.0856 51.3897 16.2257 51.2099 16.3195C51.0301 16.4134 50.8286 16.4577 50.626 16.4478ZM50.626 12.5918C50.5734 12.5917 50.5219 12.6071 50.4779 12.6361C50.434 12.6651 50.3996 12.7063 50.379 12.7548C50.3198 12.8817 50.2788 13.0164 50.257 13.1548C50.2331 13.3161 50.2194 13.4787 50.216 13.6418C50.216 13.8108 50.216 13.9568 50.216 14.0848C50.216 14.2128 50.222 14.3318 50.231 14.4658C50.2391 14.5916 50.2589 14.7165 50.29 14.8388C50.3107 14.9402 50.3522 15.0362 50.412 15.1208C50.4368 15.1546 50.4693 15.182 50.5069 15.2006C50.5445 15.2192 50.586 15.2285 50.628 15.2278C50.6706 15.2288 50.713 15.2196 50.7514 15.201C50.7898 15.1824 50.8233 15.1549 50.849 15.1208C50.9081 15.0359 50.9496 14.94 50.971 14.8388C51.0028 14.7167 51.0226 14.5917 51.03 14.4658C51.039 14.3318 51.045 14.2068 51.045 14.0848C51.045 13.9628 51.045 13.8108 51.045 13.6418C51.0416 13.4787 51.0279 13.3161 51.004 13.1548C50.9841 13.0159 50.9426 12.8809 50.881 12.7548C50.8599 12.7051 50.8242 12.6629 50.7787 12.6339C50.7332 12.6048 50.68 12.5901 50.626 12.5918ZM50.626 9.07379C50.5856 9.07365 50.5458 9.08412 50.5107 9.10413C50.4757 9.12413 50.4464 9.15298 50.426 9.18781C50.3713 9.27406 50.333 9.36964 50.313 9.46979C50.2864 9.58663 50.2687 9.70527 50.26 9.82477C50.254 9.94943 50.251 10.0635 50.251 10.1668C50.251 10.2701 50.254 10.3904 50.26 10.5278C50.2677 10.6512 50.2844 10.7738 50.31 10.8948C50.3269 10.9974 50.3646 11.0954 50.421 11.1828C50.4415 11.2174 50.4708 11.2461 50.5059 11.2659C50.541 11.2858 50.5807 11.296 50.621 11.2958C50.6622 11.2966 50.7029 11.2865 50.739 11.2667C50.7752 11.2469 50.8055 11.218 50.827 11.1828C50.8827 11.0949 50.9211 10.9971 50.94 10.8948C50.9649 10.7738 50.9803 10.6511 50.986 10.5278C50.995 10.3988 50.997 10.2778 50.997 10.1668C50.997 10.0558 50.997 9.94877 50.986 9.82477C50.9793 9.7053 50.9629 9.5866 50.937 9.46979C50.9153 9.36965 50.8761 9.27418 50.821 9.18781C50.801 9.15358 50.7726 9.12499 50.7384 9.10486C50.7043 9.08473 50.6656 9.07373 50.626 9.07281V9.07379Z" fill="#1A1818"/>
<path d="M53.457 9.61975H54.209V11.8958H55.357V13.1758H54.209V15.4498H53.457V13.1758H52.303V11.8958H53.457V9.61975Z" fill="#1A1818"/>
</g>
<defs>
<clipPath id="clip0_328_315">
<rect width="60.42" height="90.628" fill="white" transform="translate(0.67395 0.689697)"/>
</clipPath>
</defs>
</svg>
