<svg width="62" height="92" viewBox="0 0 62 92" fill="none" xmlns="http://www.w3.org/2000/svg">
<g clip-path="url(#clip0_328_316)">
<path d="M61.257 0.689697H0.838989V91.3167H61.257V0.689697Z" fill="white"/>
<path d="M60.379 1.66272V90.3477H1.71698V1.66272H60.379Z" fill="#1A1818"/>
<path d="M57.004 4.8147H4.66797V19.5207H57.004V4.8147Z" fill="white"/>
<path d="M57.011 22.7267H4.64499V76.7877H57.011V22.7267Z" fill="white"/>
<path d="M4.65497 87.1497V79.9717H15.168V81.6517H8.88097V82.6777H14.204V84.3517H8.88097V85.4757H15.415V87.1497H4.65497Z" fill="white"/>
<path d="M24.345 82.0616C24.2928 81.9356 24.2093 81.8249 24.1024 81.7402C23.9955 81.6555 23.8686 81.5995 23.734 81.5776C23.3791 81.4801 23.0119 81.435 22.644 81.4437C21.714 81.4437 21.298 81.5956 21.298 81.8636C21.298 82.9246 28.712 82.2577 28.712 84.8687C28.712 86.5317 26.22 87.3427 22.679 87.3427C19.279 87.3427 17.06 86.2376 16.97 84.9426H21.014C21.0801 85.0837 21.1775 85.208 21.2988 85.3058C21.4201 85.4037 21.5621 85.4727 21.714 85.5076C22.1018 85.6314 22.5069 85.6925 22.914 85.6887C23.971 85.6887 24.672 85.5016 24.672 85.1636C24.672 84.0746 17.253 84.8206 17.253 82.0856C17.253 80.5596 19.617 79.7957 22.842 79.7957C26.42 79.7957 28.05 80.8097 28.359 82.0637L24.345 82.0616Z" fill="white"/>
<path d="M35.038 83.0847H36.699C38.005 83.0847 38.707 82.8947 38.707 82.4007C38.707 81.9067 37.991 81.6517 37.007 81.6517H35.038V83.0847ZM35.038 84.6497V87.1497H30.813V79.9717H36.903C41.193 79.9717 42.611 80.6297 42.611 82.0237C42.611 82.8537 41.95 83.5427 40.446 83.7837C41.804 84.0577 42.629 84.2267 42.629 85.6747C42.629 86.6097 42.574 86.9337 43.075 86.9337V87.1497H38.794C38.6265 86.7536 38.5539 86.3239 38.582 85.8947C38.582 84.9527 38.296 84.6497 36.327 84.6497H35.038Z" fill="white"/>
<path d="M49.426 81.6526V82.8526H51.186C52.028 82.8526 52.638 82.6346 52.638 82.2256C52.638 81.6636 51.807 81.6516 50.918 81.6516L49.426 81.6526ZM49.426 84.1526V85.4776H51.27C52.317 85.4776 53.101 85.3556 53.101 84.8196C53.101 84.1926 52.121 84.1526 50.77 84.1526H49.426ZM45.206 87.1526V79.9746H51.366C54.266 79.9746 56.577 80.3646 56.577 81.7866C56.577 82.5266 55.715 83.0656 54.895 83.3436C56.29 83.5436 57.037 84.2176 57.037 84.9876C57.037 86.5876 54.837 87.1526 51.488 87.1526H45.206Z" fill="white"/>
<path d="M34.147 63.5027H31.892V64.7437H34.147V66.9316H35.427V64.7437H37.688V63.5027H35.427V61.3087H34.147V63.5027ZM30.556 62.9467C30.556 58.5847 28.219 56.0027 24.341 56.0027C19.101 56.0027 17.81 59.5837 17.81 62.9467C17.81 67.0547 19.871 69.8907 24.185 69.8907C28.499 69.8907 30.556 67.0547 30.556 62.9467ZM8.61598 35.2227L40.329 25.7527L43.505 35.7967L27.62 40.5367L28.92 44.6427L43.598 40.2657L46.769 50.3107L32.1 54.6847L33.47 59.0127L49.879 54.1127L53.061 64.1487L20.829 73.7747L8.61598 35.2227ZM9.82498 60.6227C11.2553 60.2678 12.5967 59.6209 13.765 58.7227V69.2227H16.74V56.0566H13.84C12.6647 57.0164 11.2931 57.7067 9.82198 58.0787V60.6277" fill="#1A1818"/>
<path d="M20.548 62.8237C20.571 58.4237 22.316 57.3977 24.316 57.4037C26.552 57.4147 27.824 59.0857 27.809 62.9467C27.795 65.3557 27.145 68.3087 24.28 68.2917C21.473 68.2807 20.532 66.0387 20.548 62.8227" fill="#1A1818"/>
<path d="M6.14297 16.3437V8.00073H9.41197V9.28571H7.39198V11.3437H9.24898V12.6267H7.39198V15.0657H9.47298V16.3457L6.14297 16.3437Z" fill="#1A1818"/>
<path d="M9.81097 7.99878H11.111L12.041 14.0658H12.058L13.102 7.99878H14.34L12.751 16.3438H11.283L9.81097 7.99878Z" fill="#1A1818"/>
<path d="M14.898 16.3437V8.00073H18.167V9.28571H16.15V11.3437H18.007V12.6267H16.15V15.0657H18.233V16.3457L14.898 16.3437Z" fill="#1A1818"/>
<path d="M20.278 16.3437H19.025V8.00076H21.339C21.5431 7.99637 21.7449 8.04533 21.9243 8.14285C22.1038 8.24036 22.2546 8.38302 22.362 8.55673C22.647 9.05022 22.7795 9.61705 22.743 10.1858C22.7555 10.649 22.6689 11.1097 22.489 11.5368C22.4134 11.7144 22.2957 11.871 22.146 11.9929C21.9963 12.1149 21.8192 12.1986 21.63 12.2367V12.2577C21.695 12.2757 21.79 12.2967 21.91 12.3297C22.0471 12.3663 22.1724 12.4377 22.274 12.5368C22.4105 12.6725 22.5159 12.8363 22.583 13.0168C22.6828 13.3 22.7276 13.5997 22.715 13.8997C22.715 14.0307 22.715 14.2167 22.721 14.4557C22.727 14.6947 22.729 14.9418 22.742 15.1958C22.755 15.4498 22.766 15.6847 22.786 15.8957C22.795 16.0473 22.8184 16.1977 22.856 16.3448H21.629C21.5455 16.0862 21.5019 15.8164 21.5 15.5448C21.5 15.2678 21.5 14.9947 21.5 14.7237C21.5 14.4767 21.5 14.2408 21.5 14.0238C21.501 13.8259 21.4737 13.6289 21.419 13.4387C21.3722 13.2819 21.2796 13.1425 21.153 13.0387C20.9941 12.9279 20.8022 12.8746 20.609 12.8877H20.286L20.278 16.3437ZM20.278 11.6078H20.834C20.9478 11.6105 21.0582 11.5689 21.142 11.4917C21.2299 11.4077 21.2982 11.3052 21.342 11.1917C21.3945 11.0636 21.4298 10.9291 21.447 10.7917C21.4646 10.6534 21.4736 10.5141 21.474 10.3747C21.4988 10.0812 21.4395 9.78673 21.303 9.52572C21.2531 9.44773 21.1839 9.38401 21.102 9.34073C21.0202 9.29744 20.9285 9.27605 20.836 9.27871H20.28L20.278 11.6078Z" fill="#1A1818"/>
<path d="M24.641 13.4548L23.071 7.99878H24.441L25.335 11.5228L26.291 7.99878H27.568L25.892 13.4548V16.3438H24.641V13.4548Z" fill="#1A1818"/>
<path d="M30.155 16.4807C29.7266 16.5086 29.3027 16.3791 28.963 16.1167C28.6692 15.8587 28.4551 15.5222 28.346 15.1467C28.2128 14.6978 28.1376 14.2337 28.122 13.7657C28.102 13.2497 28.09 12.7167 28.09 12.1657C28.09 11.6147 28.102 11.0757 28.122 10.5597C28.1375 10.0937 28.2128 9.63156 28.346 9.18469C28.4571 8.81153 28.6709 8.47717 28.963 8.21973C29.3162 7.98352 29.7316 7.85742 30.1565 7.85742C30.5814 7.85742 30.9968 7.98352 31.35 8.21973C31.6411 8.47741 31.8539 8.81179 31.964 9.18469C32.0993 9.63105 32.1747 10.0934 32.188 10.5597C32.211 11.0757 32.22 11.6117 32.22 12.1657C32.22 12.7197 32.211 13.2447 32.188 13.7657C32.1747 14.2339 32.0993 14.6983 31.964 15.1467C31.8559 15.5219 31.6428 15.8584 31.35 16.1167C31.0092 16.3793 30.5843 16.5087 30.155 16.4807ZM30.155 15.2337C30.2346 15.2374 30.314 15.2233 30.3875 15.1925C30.461 15.1617 30.5267 15.115 30.58 15.0557C30.7031 14.8939 30.7858 14.705 30.821 14.5047C30.8843 14.1908 30.9201 13.8719 30.928 13.5517C30.9446 13.1637 30.9533 12.7034 30.954 12.1707C30.9546 11.638 30.946 11.1784 30.928 10.7917C30.9202 10.4708 30.8844 10.1513 30.821 9.83673C30.7862 9.63754 30.7035 9.44981 30.58 9.28973C30.5254 9.23212 30.4597 9.18621 30.3868 9.15485C30.3139 9.12349 30.2353 9.1073 30.156 9.1073C30.0766 9.1073 29.9981 9.12349 29.9252 9.15485C29.8523 9.18621 29.7866 9.23212 29.732 9.28973C29.6083 9.44941 29.5265 9.63743 29.494 9.83673C29.4294 10.1512 29.3926 10.4707 29.384 10.7917C29.3673 11.1817 29.3593 11.6414 29.36 12.1707C29.3606 12.7 29.3686 13.1604 29.384 13.5517C29.3926 13.872 29.4294 14.1909 29.494 14.5047C29.527 14.7051 29.6087 14.8943 29.732 15.0557C29.7852 15.1145 29.8506 15.161 29.9237 15.1917C29.9968 15.2225 30.0757 15.2368 30.155 15.2337Z" fill="#1A1818"/>
<path d="M33.226 16.3437V8.00073H34.917L36.509 13.7787H36.526V8.00073H37.695V16.3437H36.043L34.411 10.2437H34.393V16.3437H33.226Z" fill="#1A1818"/>
<path d="M38.75 16.3437V8.00073H42.017V9.28571H40.003V11.3437H41.86V12.6267H40.003V15.0657H42.082V16.3457L38.75 16.3437Z" fill="#1A1818"/>
<path d="M44.623 9.31976C44.8367 9.14878 45.0373 8.9619 45.223 8.76074C45.426 8.5412 45.6001 8.29651 45.741 8.03271H46.848V16.3408H45.597V9.94971C45.4525 10.1274 45.2954 10.2945 45.127 10.4497C44.958 10.5987 44.789 10.7437 44.62 10.8777L44.623 9.31976Z" fill="#1A1818"/>
<path d="M49.74 7.92677C50.0424 7.91353 50.3421 7.98817 50.603 8.14174C50.8472 8.31644 51.0265 8.56721 51.113 8.85475C51.2482 9.28013 51.3285 9.72104 51.352 10.1668C51.392 10.7038 51.416 11.3668 51.416 12.1668C51.416 12.8181 51.4013 13.4074 51.372 13.9348C51.356 14.392 51.2865 14.8457 51.165 15.2868C51.0769 15.6153 50.9005 15.9134 50.655 16.1488C50.3903 16.3464 50.0688 16.4531 49.7385 16.4531C49.4082 16.4531 49.0867 16.3464 48.822 16.1488C48.5776 15.9133 48.4028 15.6151 48.317 15.2868C48.1929 14.8461 48.1217 14.3923 48.105 13.9348C48.079 13.4078 48.064 12.8188 48.064 12.1668C48.064 11.3734 48.0846 10.7068 48.126 10.1668C48.1478 9.72068 48.2288 9.27947 48.367 8.85475C48.4524 8.56753 48.6307 8.31675 48.874 8.14174C49.1353 7.98668 49.4365 7.91195 49.74 7.92677ZM49.74 9.14174C49.6861 9.13811 49.6321 9.1468 49.582 9.16707C49.532 9.18733 49.4872 9.21865 49.451 9.25874C49.3647 9.39345 49.3128 9.54729 49.3 9.70674C49.2606 10.0128 49.2409 10.3212 49.241 10.6298C49.241 11.0298 49.235 11.5467 49.235 12.1887C49.235 12.8157 49.235 13.3277 49.247 13.7247C49.247 14.0357 49.2697 14.3462 49.315 14.6538C49.3277 14.8164 49.3795 14.9735 49.466 15.1118C49.4984 15.1529 49.5402 15.1856 49.5879 15.2074C49.6355 15.2291 49.6877 15.2392 49.74 15.2368C49.7921 15.2386 49.8439 15.2283 49.8913 15.2066C49.9387 15.1849 49.9803 15.1524 50.013 15.1118C50.1001 14.9736 50.1529 14.8165 50.167 14.6538C50.2111 14.346 50.2341 14.0356 50.236 13.7247C50.242 13.3247 50.248 12.8157 50.248 12.1887C50.248 11.5457 50.248 11.0258 50.239 10.6298C50.2406 10.3211 50.2209 10.0127 50.18 9.70674C50.1693 9.54638 50.1162 9.39175 50.026 9.25874C49.99 9.21923 49.9456 9.18828 49.8962 9.16804C49.8467 9.14781 49.7933 9.13879 49.74 9.14174Z" fill="#1A1818"/>
<path d="M53.199 9.61865H54.119V11.8997H55.519V13.1817H54.119V15.4577H53.199V13.1817H51.788V11.8997H53.199V9.61865Z" fill="#1A1818"/>
</g>
<defs>
<clipPath id="clip0_328_316">
<rect width="60.418" height="90.627" fill="white" transform="translate(0.838013 0.689697)"/>
</clipPath>
</defs>
</svg>
