<svg width="61" height="92" viewBox="0 0 61 92" fill="none" xmlns="http://www.w3.org/2000/svg">
<g clip-path="url(#clip0_328_317)">
<path d="M60.419 0.689697H0V91.3177H60.419V0.689697Z" fill="white"/>
<path d="M59.54 1.66174V90.3438H0.877991V1.66174H59.54Z" fill="#1A1818"/>
<path d="M56.166 4.81372H3.82999V19.5177H56.166V4.81372Z" fill="white"/>
<path d="M56.172 22.7267H3.806V76.7887H56.172V22.7267Z" fill="white"/>
<path d="M3.81699 87.1488V79.9708H14.33V81.6508H8.03999V82.6768H13.363V84.3508H8.03999V85.4748H14.574V87.1488H3.81699Z" fill="white"/>
<path d="M23.507 82.0618C23.4558 81.9352 23.3729 81.8241 23.2662 81.739C23.1595 81.6538 23.0327 81.5976 22.898 81.5757C22.5422 81.4796 22.1744 81.4352 21.806 81.4438C20.877 81.4438 20.462 81.5948 20.462 81.8628C20.462 82.9238 27.876 82.2628 27.876 84.8698C27.876 86.5308 25.382 87.3438 21.842 87.3438C18.442 87.3438 16.221 86.2368 16.131 84.9438H20.175C20.2414 85.0848 20.3389 85.209 20.4601 85.307C20.5813 85.405 20.7232 85.4744 20.875 85.5098C21.2628 85.6336 21.6679 85.6947 22.075 85.6908C23.13 85.6908 23.833 85.5038 23.833 85.1638C23.833 84.0758 16.414 84.8218 16.414 82.0858C16.414 80.5618 18.778 79.7958 22.003 79.7958C25.579 79.7958 27.211 80.8108 27.519 82.0658L23.507 82.0618Z" fill="white"/>
<path d="M34.198 83.0847H35.859C37.167 83.0847 37.869 82.8947 37.869 82.3997C37.869 81.9047 37.153 81.6507 36.169 81.6507H34.2L34.198 83.0847ZM34.198 84.6487V87.1487H29.975V79.9707H36.063C40.353 79.9707 41.771 80.6267 41.771 82.0217C41.771 82.8517 41.11 83.5407 39.606 83.7827C40.966 84.0557 41.791 84.2257 41.791 85.6737C41.791 86.6067 41.736 86.9317 42.237 86.9317V87.1497H37.954C37.7875 86.753 37.715 86.3231 37.742 85.8937C37.742 84.9517 37.456 84.6487 35.487 84.6487H34.198Z" fill="white"/>
<path d="M48.589 81.6508V82.8508H50.349C51.191 82.8508 51.801 82.6348 51.801 82.2238C51.801 81.6618 50.968 81.6498 50.081 81.6498L48.589 81.6508ZM48.589 84.1508V85.4738H50.431C51.478 85.4738 52.264 85.3518 52.264 84.8158C52.264 84.1888 51.282 84.1508 49.932 84.1508H48.589ZM44.367 87.1508V79.9728H50.528C53.428 79.9728 55.739 80.3628 55.739 81.7828C55.739 82.5228 54.876 83.0618 54.055 83.3418C55.45 83.5418 56.199 84.2158 56.199 84.9858C56.199 86.5858 53.999 87.1508 50.648 87.1508H44.367Z" fill="white"/>
<path d="M8.17599 35.8468L48.688 25.7468L51.804 36.5468L38.787 39.7908L47.516 70.1268L33.032 73.7398L24.297 43.4038L11.287 46.6508L8.17599 35.8468Z" fill="#1A1818"/>
<path d="M43.877 7.99878H47.317L51.308 12.5427L51.17 10.6428V7.99878H54.688V16.3187H51.252L47.252 11.7867L47.319 13.7507L47.393 16.3187H43.875L43.877 7.99878Z" fill="#1A1818"/>
<path d="M31.485 7.99878H40.608V9.93176H35.15V11.1318H39.768V13.0737H35.15V14.3738H40.825V16.3187H31.485V7.99878Z" fill="#1A1818"/>
<path d="M18.661 7.99878H27.786V9.93176H22.328V11.1318H26.943V13.0737H22.327V14.3738H28.006V16.3187H18.66L18.661 7.99878Z" fill="#1A1818"/>
<path d="M5.28398 7.99878H15.544V10.1818H12.252V16.3187H8.57698V10.1818H5.28299L5.28398 7.99878Z" fill="#1A1818"/>
</g>
<defs>
<clipPath id="clip0_328_317">
<rect width="60.42" height="90.628" fill="white" transform="translate(0 0.689697)"/>
</clipPath>
</defs>
</svg>
