<svg width="33" height="33" viewBox="0 0 33 33" fill="none" xmlns="http://www.w3.org/2000/svg">
<g clip-path="url(#clip0_407_190)">
<path fill-rule="evenodd" clip-rule="evenodd" d="M15.0282 32.1552V26.337H17.9373V32.1552H15.0282Z" fill="#F0F0F0"/>
<path fill-rule="evenodd" clip-rule="evenodd" d="M15.0282 5.97334V0.155151H17.9373V5.97334H15.0282Z" fill="#F0F0F0"/>
<path fill-rule="evenodd" clip-rule="evenodd" d="M22.7269 7.85392L26.768 3.81289L28.825 5.86993L24.784 9.91095L22.7269 7.85392Z" fill="#F0F0F0"/>
<path fill-rule="evenodd" clip-rule="evenodd" d="M4.14059 26.4403L8.18153 22.3994L10.2386 24.4564L6.19763 28.4973L4.14059 26.4403Z" fill="#F0F0F0"/>
<path fill-rule="evenodd" clip-rule="evenodd" d="M26.768 28.4974L22.727 24.4564L24.784 22.3994L28.825 26.4403L26.768 28.4974Z" fill="#F0F0F0"/>
<path fill-rule="evenodd" clip-rule="evenodd" d="M8.18155 9.91095L4.14053 5.86993L6.19756 3.81289L10.2386 7.85392L8.18155 9.91095Z" fill="#F0F0F0"/>
<path fill-rule="evenodd" clip-rule="evenodd" d="M32.4828 17.6097H26.6646V14.7006H32.4828V17.6097Z" fill="#F0F0F0"/>
<path fill-rule="evenodd" clip-rule="evenodd" d="M6.30097 17.6097H0.482788V14.7006H6.30097V17.6097Z" fill="#F0F0F0"/>
<path fill-rule="evenodd" clip-rule="evenodd" d="M16.4828 24.8824C21.3027 24.8824 25.2101 20.9751 25.2101 16.1552C25.2101 11.3352 21.3027 7.42788 16.4828 7.42788C11.6628 7.42788 7.75552 11.3352 7.75552 16.1552C7.75552 20.9751 11.6628 24.8824 16.4828 24.8824ZM16.4828 27.7915C22.9094 27.7915 28.1192 22.5817 28.1192 16.1552C28.1192 9.72857 22.9094 4.51879 16.4828 4.51879C10.0562 4.51879 4.84642 9.72857 4.84642 16.1552C4.84642 22.5817 10.0562 27.7915 16.4828 27.7915Z" fill="#F0F0F0"/>
</g>
<defs>
<clipPath id="clip0_407_190">
<rect width="32" height="32" fill="white" transform="translate(0.482788 0.155151)"/>
</clipPath>
</defs>
</svg>
