<svg width="33" height="33" viewBox="0 0 33 33" fill="none" xmlns="http://www.w3.org/2000/svg">
<g clip-path="url(#clip0_407_180)">
<path fill-rule="evenodd" clip-rule="evenodd" d="M29.7461 7.42788H3.56424V24.8824H29.7461V7.42788ZM0.655151 4.51879V27.7915H32.6552V4.51879H0.655151Z" fill="#19A1FF"/>
<path fill-rule="evenodd" clip-rule="evenodd" d="M17.8557 12.8162C16.9598 10.9209 15.0305 9.6097 12.795 9.6097C9.70531 9.6097 7.20061 12.1144 7.20061 15.2041V27.7915H25.3824V21.0223C25.3824 18.456 23.6544 16.2933 21.2985 15.6342C20.818 15.4998 20.3114 15.4279 19.788 15.4279C19.2907 15.4279 18.8177 15.5317 18.3894 15.7188V15.2041C18.3894 14.3499 18.198 13.5404 17.8557 12.8162ZM22.4733 24.8824V21.0223C22.4733 19.5392 21.2711 18.337 19.788 18.337C19.6991 18.337 19.622 18.3549 19.5541 18.3846L15.4803 20.1645V15.2041C15.4803 13.721 14.2781 12.5188 12.795 12.5188C11.312 12.5188 10.1097 13.721 10.1097 15.2041V24.8824H22.4733Z" fill="#19A1FF"/>
</g>
<defs>
<clipPath id="clip0_407_180">
<rect width="32" height="32" fill="white" transform="translate(0.655151 0.155151)"/>
</clipPath>
</defs>
</svg>
