<svg width="33" height="33" viewBox="0 0 33 33" fill="none" xmlns="http://www.w3.org/2000/svg">
<g clip-path="url(#clip0_407_185)">
<path fill-rule="evenodd" clip-rule="evenodd" d="M27.3247 8.89756L22.6964 4.26923L4.18305 22.7826L8.81138 27.4109C10.5155 29.115 13.2784 29.115 14.9825 27.4109L27.3247 15.0687C29.0288 13.3646 29.0288 10.6017 27.3247 8.89756ZM22.6964 0.155151L0.0689697 22.7826L6.75434 29.4679C9.59452 32.3081 14.1994 32.3081 17.0395 29.4679L29.3818 17.1257C32.2219 14.2855 32.2219 9.6807 29.3818 6.84052L22.6964 0.155151Z" fill="#F0F0F0"/>
<path d="M15.4968 22.7826C14.3607 23.9186 12.5187 23.9186 11.3827 22.7826C10.2466 21.6465 10.2466 19.8046 11.3827 18.6685C12.5187 17.5324 14.3607 17.5324 15.4968 18.6685C16.6328 19.8046 16.6328 21.6465 15.4968 22.7826Z" fill="#F0F0F0"/>
<path d="M23.7249 12.4974C23.1569 13.0654 22.2359 13.0654 21.6679 12.4974C21.0998 11.9293 21.0998 11.0084 21.6679 10.4403C22.2359 9.87231 23.1569 9.87231 23.7249 10.4403C24.2929 11.0084 24.2929 11.9293 23.7249 12.4974Z" fill="#F0F0F0"/>
<path d="M19.6108 12.4974C19.0428 13.0654 18.1218 13.0654 17.5538 12.4974C16.9858 11.9293 16.9858 11.0084 17.5538 10.4403C18.1218 9.87231 19.0428 9.87231 19.6108 10.4403C20.1789 11.0084 20.1789 11.9293 19.6108 12.4974Z" fill="#F0F0F0"/>
<path d="M23.7249 16.6115C23.1569 17.1795 22.2359 17.1795 21.6679 16.6115C21.0998 16.0434 21.0998 15.1225 21.6679 14.5544C22.2359 13.9864 23.1569 13.9864 23.7249 14.5544C24.2929 15.1225 24.2929 16.0434 23.7249 16.6115Z" fill="#F0F0F0"/>
<path d="M19.6108 16.6115C19.0428 17.1795 18.1218 17.1795 17.5538 16.6115C16.9858 16.0434 16.9858 15.1225 17.5538 14.5544C18.1218 13.9864 19.0428 13.9864 19.6108 14.5544C20.1789 15.1225 20.1789 16.0434 19.6108 16.6115Z" fill="#F0F0F0"/>
</g>
<defs>
<clipPath id="clip0_407_185">
<rect width="32" height="32" fill="white" transform="translate(0.0689697 0.155151)"/>
</clipPath>
</defs>
</svg>
