<svg width="33" height="33" viewBox="0 0 33 33" fill="none" xmlns="http://www.w3.org/2000/svg">
<g clip-path="url(#clip0_407_170)">
<path fill-rule="evenodd" clip-rule="evenodd" d="M18.8517 24.1551H26.6458C28.0517 24.1551 29.1913 23.0155 29.1913 21.6097V6.33697C29.1913 4.93115 28.0517 3.79151 26.6458 3.79151H7.00948C5.60366 3.79151 4.46402 4.93115 4.46402 6.33697V21.6097C4.46402 23.0155 5.60366 24.1551 7.00948 24.1551H14.3579L16.7118 27.5789L18.8517 24.1551ZM15.8302 28.9896L15.831 28.9882L15.8302 28.9896ZM20.464 27.0642H26.6458C29.6583 27.0642 32.1004 24.6222 32.1004 21.6097V6.33697C32.1004 3.32451 29.6583 0.882423 26.6458 0.882423H7.00948C3.99701 0.882423 1.55493 3.32451 1.55493 6.33697V21.6097C1.55493 24.6222 3.99701 27.0642 7.00948 27.0642H12.8277L15.257 30.5978C15.9987 31.6767 17.6032 31.6416 18.2971 30.5314L20.464 27.0642Z" fill="#FC5835"/>
<path fill-rule="evenodd" clip-rule="evenodd" d="M29.1913 15.3116H4.46402V12.4025H29.1913V15.3116ZM16.8277 21.0781H7.37311V18.169H16.8277V21.0781Z" fill="#FC5835"/>
</g>
<defs>
<clipPath id="clip0_407_170">
<rect width="32" height="32" fill="white" transform="translate(0.827637 0.155151)"/>
</clipPath>
</defs>
</svg>
