<svg width="33" height="33" viewBox="0 0 33 33" fill="none" xmlns="http://www.w3.org/2000/svg">
<g clip-path="url(#clip0_407_195)">
<path d="M11.8056 3.98004C6.28319 6.04365 2.35107 11.3675 2.35107 17.6097C2.35107 25.6429 8.8633 32.1552 16.8965 32.1552C24.9298 32.1552 31.442 25.6429 31.442 17.6097C31.442 11.3675 27.5099 6.04365 21.9874 3.98004V7.14313C25.8627 9.03155 28.5329 13.0088 28.5329 17.6097C28.5329 24.0363 23.3231 29.2461 16.8965 29.2461C10.4699 29.2461 5.26017 24.0363 5.26017 17.6097C5.26017 13.0088 7.93037 9.03155 11.8056 7.14313V3.98004Z" fill="#F0F0F0"/>
<path d="M15.442 0.155151H18.3511V15.4279H15.442V0.155151Z" fill="#F0F0F0"/>
</g>
<defs>
<clipPath id="clip0_407_195">
<rect width="32" height="32" fill="white" transform="translate(0.896484 0.155151)"/>
</clipPath>
</defs>
</svg>
