<svg width="33" height="33" viewBox="0 0 33 33" fill="none" xmlns="http://www.w3.org/2000/svg">
<g clip-path="url(#clip0_407_165)">
<path fill-rule="evenodd" clip-rule="evenodd" d="M1.79968 32.1085C2.2368 32.3419 2.72607 32.4587 3.2675 32.4587C3.80893 32.4587 4.29572 32.3419 4.72787 32.1085C5.16002 31.875 5.50027 31.5546 5.74863 31.1473C5.997 30.735 6.12118 30.2731 6.12118 29.7615C6.12118 29.2498 5.997 28.7904 5.74863 28.383C5.50027 27.9708 5.16002 27.6479 4.72787 27.4144C4.29572 27.181 3.80893 27.0642 3.2675 27.0642C2.72607 27.0642 2.2368 27.181 1.79968 27.4144C1.36753 27.6479 1.02727 27.9708 0.778911 28.383C0.535516 28.7904 0.413818 29.2498 0.413818 29.7615C0.413818 30.2731 0.535516 30.735 0.778911 31.1473C1.02727 31.5546 1.36753 31.875 1.79968 32.1085ZM4.10199 31.2218C3.85363 31.3609 3.57547 31.4304 3.2675 31.4304C2.95953 31.4304 2.68136 31.3609 2.433 31.2218C2.18464 31.0778 1.98843 30.8791 1.84438 30.6257C1.7053 30.3724 1.63576 30.0843 1.63576 29.7615C1.63576 29.4386 1.7053 29.1505 1.84438 28.8972C1.98843 28.6438 2.18464 28.4476 2.433 28.3085C2.68136 28.1645 2.95953 28.0925 3.2675 28.0925C3.57547 28.0925 3.85363 28.1645 4.10199 28.3085C4.35036 28.4476 4.54408 28.6438 4.68316 28.8972C4.82721 29.1505 4.89924 29.4386 4.89924 29.7615C4.89924 30.0843 4.82721 30.3724 4.68316 30.6257C4.54408 30.8791 4.35036 31.0778 4.10199 31.2218Z" fill="#F0F0F0"/>
<path d="M12.2859 32.3693V27.1537H11.0938V30.3203L8.50088 27.1537H7.50246V32.3693H8.6946V29.2026L11.295 32.3693H12.2859Z" fill="#F0F0F0"/>
<path d="M13.9941 27.1537H15.2011V31.3857H17.8163V32.3693H13.9941V27.1537Z" fill="#F0F0F0"/>
<path d="M20.1719 27.1537H18.9649V32.3693H20.1719V27.1537Z" fill="#F0F0F0"/>
<path d="M26.6673 27.1537V32.3693H25.6764L23.076 29.2026V32.3693H21.8839V27.1537H22.8823L25.4752 30.3203V27.1537H26.6673Z" fill="#F0F0F0"/>
<path d="M32.4138 32.3693V31.4006H29.575V30.1936H31.9966V29.2548H29.575V28.1223H32.317V27.1537H28.3755V32.3693H32.4138Z" fill="#F0F0F0"/>
<path d="M12.7775 7.42788C12.7775 8.63286 11.8006 9.6097 10.5956 9.6097C9.39065 9.6097 8.41382 8.63286 8.41382 7.42788C8.41382 6.22289 9.39065 5.24606 10.5956 5.24606C11.8006 5.24606 12.7775 6.22289 12.7775 7.42788Z" fill="#F0F0F0"/>
<path fill-rule="evenodd" clip-rule="evenodd" d="M4.77745 5.97333C4.77745 2.76004 7.38234 0.155151 10.5956 0.155151H15.6865V23.4279H10.5956C7.38234 23.4279 4.77745 20.823 4.77745 17.6097V5.97333ZM10.5956 1.6097H14.232V21.9733H10.5956C8.18567 21.9733 6.232 20.0197 6.232 17.6097V5.97333C6.232 3.56336 8.18567 1.6097 10.5956 1.6097Z" fill="#F0F0F0"/>
<path fill-rule="evenodd" clip-rule="evenodd" d="M17.8684 0.155151H22.232C25.4453 0.155151 28.0502 2.76004 28.0502 5.97333V17.6097C28.0502 20.823 25.4453 23.4279 22.232 23.4279H17.8684V0.155151ZM25.1411 12.5188C25.1411 13.7238 24.1643 14.7006 22.9593 14.7006C21.7543 14.7006 20.7775 13.7238 20.7775 12.5188C20.7775 11.3138 21.7543 10.337 22.9593 10.337C24.1643 10.337 25.1411 11.3138 25.1411 12.5188Z" fill="#F0F0F0"/>
</g>
<defs>
<clipPath id="clip0_407_165">
<rect width="32" height="32" fill="white" transform="translate(0.413818 0.155151)"/>
</clipPath>
</defs>
</svg>
