<svg width="28" height="21" viewBox="0 0 28 21" fill="none" xmlns="http://www.w3.org/2000/svg">
<path fill-rule="evenodd" clip-rule="evenodd" d="M28.0001 8.37854C26.3376 6.0846 24.2396 4.22696 21.856 2.93833C19.4725 1.6497 16.8622 0.961904 14.2117 0.924074C11.5612 0.886244 8.93593 1.49932 6.52338 2.71949C4.11084 3.93966 1.97061 5.73682 0.255615 7.98255L2.25717 9.86962C3.72206 7.95138 5.55017 6.41631 7.61088 5.37408C9.6716 4.33185 11.914 3.80819 14.178 3.8405C16.442 3.87281 18.6716 4.46031 20.7075 5.56101C22.7435 6.66171 24.5355 8.24845 25.9555 10.2079L28.0001 8.37854ZM23.3455 12.8573C22.2203 11.2621 20.7917 9.96306 19.1618 9.05305C17.532 8.14305 15.7412 7.64464 13.9177 7.59349C12.0943 7.54234 10.2831 7.93973 8.61405 8.7572C6.94495 9.57467 5.45913 10.792 4.26294 12.3221L6.08841 14.084C7.05087 12.8529 8.24637 11.8734 9.58934 11.2156C10.9323 10.5579 12.3895 10.2382 13.8567 10.2793C15.3239 10.3205 16.7647 10.7215 18.0761 11.4537C19.3875 12.1859 20.537 13.2311 21.4423 14.5146L23.3455 12.8573ZM16.2765 14.7632C17.0045 15.0982 17.6659 15.5893 18.2231 16.2084L13.9804 20.9224L9.73779 16.2084C10.2949 15.5893 10.9564 15.0982 11.6843 14.7632C12.4123 14.4282 13.1925 14.2557 13.9804 14.2557C14.7684 14.2557 15.5486 14.4282 16.2765 14.7632Z" fill="#F0F0F0"/>
</svg>
